<svg xmlns="http://www.w3.org/2000/svg" width="793.705" height="1122.518" viewBox="0 0 8267 11629" shape-rendering="geometricPrecision" text-rendering="geometricPrecision" image-rendering="optimizeQuality" fill-rule="evenodd" clip-rule="evenodd"><path d="M7077 4566s-58-442-239-636c-229-255-484-257-602-271-841-65-2102-65-2102-65h-3s-1261 0-2102 65c-118 15-373 16-602 271-179 195-239 636-239 636s-57 518-57 1037v486c0 518 60 1037 60 1037s58 442 239 636c229 255 528 247 662 275 481 48 2043 65 2043 65s1263-2 2104-66c118-15 373-16 602-271 179-194 239-636 239-636s60-518 60-1037v-486c-2-520-61-1038-61-1038z" fill="#62d1ba" fill-rule="nonzero" stroke="#fff" stroke-width="347.22"/><path fill="#fff" fill-rule="nonzero" d="M3382 4719v2255l1878-1128z"/></svg>