<svg xmlns="http://www.w3.org/2000/svg"><defs><clipPath id="a" clipPathUnits="userSpaceOnUse"><path d="M0 18.849h20.294V0H0z"/></clipPath><clipPath id="b" clipPathUnits="userSpaceOnUse"><path d="M0 195.325h154.384V0H0z"/></clipPath></defs>
<symbol id="icon-cart" viewBox="0 0 27.0592 25.132133"> <g transform="matrix(1.3333333,0,0,-1.3333333,0,25.132133)"  ><g  ><g clip-path="url(#clipPath18)"  ><g transform="translate(17.0166,7.2842)"  ><path   style="fill-opacity:1;fill-rule:nonzero;stroke:none" d="m 0,0 h -13.739 l -0.81,2.836 H 0.811 Z M -1.653,-5.784 H -12.086 L -13.31,-1.5 H -0.429 Z M 2.528,4.336 H -0.623 L -4.03,11.15 c -0.185,0.371 -0.635,0.52 -1.007,0.336 -0.37,-0.186 -0.52,-0.636 -0.335,-1.007 l 3.071,-6.143 h -9.137 l 3.071,6.143 c 0.185,0.371 0.035,0.821 -0.335,1.007 -0.37,0.184 -0.821,0.035 -1.006,-0.336 l -3.407,-6.814 h -3.152 c -0.414,0 -0.75,-0.336 -0.75,-0.75 0,-0.414 0.336,-0.75 0.75,-0.75 h 0.158 l 0.855,-2.991 c -0.187,-0.137 -0.316,-0.346 -0.316,-0.595 0,-0.396 0.309,-0.71 0.696,-0.739 l 1.656,-5.795 h 12.697 l 1.656,5.795 c 0.388,0.028 0.698,0.343 0.698,0.739 0,0.249 -0.13,0.459 -0.317,0.596 l 0.855,2.99 h 0.157 c 0.414,0 0.75,0.336 0.75,0.75 0,0.414 -0.336,0.75 -0.75,0.75"/></g></g></g></g></symbol>
		<symbol id="icon-fb" viewBox="0 0 19.9492 36.957733"><g transform="matrix(1.3333333,0,0,-1.3333333,0,36.957733)"  ><g  ><g clip-path="url(#clipPath18)"  ><g transform="translate(7.8447,17.7427)"  ><path   style="fill-opacity:1;fill-rule:nonzero;stroke:none" d="m 0,0 c 0.117,-0.254 0.254,-0.486 0.414,-0.698 0.079,-0.022 0.203,-0.003 0.205,-0.1 1.193,-0.056 2.199,0.069 3.096,0.299 0,-0.998 -0.271,-1.733 -0.518,-2.492 C 2.535,-3.036 1.73,-3.291 1.239,-3.189 0.963,-3.354 0.867,-3.695 0.619,-3.887 0.57,-4.329 0.761,-4.382 0.619,-4.684 0.418,-4.821 0.564,-5.295 0.414,-5.48 V -6.976 C 0.499,-7.257 0.269,-7.234 0.311,-7.473 v -3.488 c -0.085,-0.282 0.146,-0.258 0.103,-0.498 v -2.99 c 0.064,-0.27 -0.132,-0.791 0.103,-0.896 -0.071,-0.364 -0.413,0.02 -0.825,-0.1 -0.528,-0.122 -0.925,-0.369 -1.547,-0.4 0.117,0.352 0.32,0.622 0.31,1.096 0.049,0.381 -0.365,0.312 -0.516,0.499 0.194,0.643 0.563,1.117 0.722,1.792 0.197,0.515 0.714,1.298 0.31,1.794 -0.523,0.106 -0.522,-0.293 -0.826,-0.398 -0.023,-0.077 -0.002,-0.196 -0.103,-0.199 -0.023,-0.077 -0.003,-0.197 -0.103,-0.199 0.01,-0.121 -0.151,-0.062 0,0 0.023,0.078 0.002,0.197 0.103,0.199 0.023,0.077 0.002,0.197 0.103,0.199 v 0.299 c 0.368,0.575 0.669,1.214 0.826,1.993 0.191,0.28 0.283,0.656 0.412,0.997 0.156,0.262 0.34,0.869 0.104,1.195 -0.516,-0.033 -0.796,-0.295 -0.929,-0.697 -0.321,0.19 0.161,0.434 0.104,0.697 0.138,0.232 0.169,0.567 0.309,0.797 0.202,0.413 0.564,1.304 0,1.596 -0.438,0.023 -0.613,-0.207 -0.723,-0.498 -0.214,-0.192 -0.43,-0.383 -0.516,-0.698 -0.373,0.07 -0.142,0.726 -0.206,1.096 -0.067,0.52 0.122,0.9 0,1.196 -0.559,0.798 -2.026,0.105 -3.197,0.298 -0.108,0.307 -0.222,0.985 -0.103,1.196 1.045,0.088 2.478,-0.201 3.197,0.199 0.024,0.078 0.003,0.197 0.103,0.199 0.094,0.723 -0.271,1 -0.514,1.396 0.232,0.805 0.04,2.02 0.103,2.989 0.234,0.141 0.328,0.414 0.515,0.598 0.112,0.955 0.673,1.475 0.722,2.492 -0.274,-0.002 -0.608,0.055 -0.62,-0.199 -0.301,0.114 -0.381,-0.479 -0.514,-0.2 -0.113,0.541 0.246,0.626 0.308,0.997 0.599,0.418 1.212,0.821 1.857,1.196 C 1.124,8.316 4.031,8.521 5.469,7.874 5.52,7.257 5.182,7.02 5.262,6.377 H 3.716 C 2.624,6.137 1.729,5.706 0.725,5.38 0.484,5.314 0.448,5.049 0.209,4.982 0.173,4.585 -0.016,4.335 -0.102,3.986 -0.182,2.547 0.03,1.39 0,0 m 3.817,4.783 c 1.027,-0.03 1.994,0 2.681,0.3 C 6.889,5.9 7.054,6.937 7.117,8.072 6.927,8.086 7.055,8.409 6.91,8.471 6.881,8.673 6.632,8.666 6.602,8.869 6.324,9.034 6.145,9.291 5.879,9.467 5.152,9.628 4.438,9.802 3.715,9.965 2.866,9.921 1.82,10.068 1.135,9.866 -1.484,9.906 -2.862,8.746 -4.125,7.474 -4.147,7.396 -4.128,7.277 -4.229,7.275 -4.804,5.688 -4.354,3.654 -4.434,1.694 -4.335,1.258 -4.326,0.735 -4.229,0.299 -5.228,0.003 -6.441,-0.087 -7.632,-0.2 -7.949,-0.523 -7.81,-1.289 -7.838,-1.893 c 0.085,-0.583 0.278,-1.06 0.413,-1.595 0.211,-0.193 0.596,-0.396 0.825,-0.498 0.065,-0.029 0.072,-0.082 0.103,-0.099 0.506,-0.268 1.451,-0.008 2.268,-0.1 -0.137,-1.978 0.255,-3.915 0,-5.68 0.006,-0.327 0.294,-0.382 0.207,-0.798 -10e-4,-0.962 -0.067,-1.99 0.208,-2.69 -0.288,-0.455 -0.497,-0.982 -0.415,-1.794 0.122,-0.016 0.113,-0.157 0.104,-0.299 -0.074,-0.47 0.644,-0.175 0.516,-0.698 0.162,-0.456 -0.428,-0.184 -0.413,-0.498 v -0.897 c 0.53,-0.285 1.462,-0.181 2.268,-0.199 0.908,0.419 2.188,0.479 2.785,1.196 0.459,-0.235 0.916,0.014 1.239,0.2 -0.018,0.315 0.273,0.333 0.205,0.698 -0.004,0.328 -0.173,0.496 -0.103,0.896 v 2.889 c -0.206,2.293 -0.048,4.939 -0.309,7.176 0.888,0.105 1.917,0.075 2.579,0.398 0.357,0.452 0.377,1.231 0.515,1.895 0.177,0.225 0.221,0.583 0.206,0.996 0.191,0.213 0.069,0.729 0.104,1.096 C 5.326,0.297 5.299,1.001 4.642,1.097 3.758,1.332 2.599,0.501 1.65,0.798 1.699,1.932 1.357,3.14 1.65,4.186 2.397,4.362 3.098,4.581 3.817,4.783"/></g></g></g></g></symbol><symbol id="icon-htmlacademy" viewBox="0 0 205.84534 260.43332"><g transform="matrix(1.3333333,0,0,-1.3333333,0,260.43333)"  ><g transform="translate(143.8521,124.9697)"  ><path id="path14" style="fill-opacity:1;fill-rule:nonzero;stroke:none" d="m 0,0 -67.02,39.508 v 0.01 l -0.008,-0.005 -0.008,0.005 v -0.01 L -133.32,0.046 V 52.777 L -66.659,59.766 0,52.777 Z m -0.054,-6.992 -18.236,-10.744 -8.419,-4.96 -40.149,23.884 -0.066,-6.951 34.317,-20.407 -0.304,-0.18 -0.739,-0.435 -4.876,-2.872 -28.332,16.854 -0.066,-6.951 22.362,-13.298 -5.276,-3.529 -0.128,-0.077 -16.892,9.951 -0.066,-6.95 11.084,-6.528 -11.291,-6.779 -66.044,39.259 66.139,39.755 V 32.043 Z M 0,-73.051 l -66.66,-39.663 -66.66,39.663 v 57.615 l 66.374,-39.505 0.111,-7.16 -45.534,27.1 -0.067,-6.951 45.715,-27.475 0.113,-7.349 -45.7,27.185 -0.066,-6.95 45.714,-27.475 46.152,27.616 v 6.982 l -0.057,-0.034 v 2.386 2.864 17.455 L 0,-14.466 Z m -65.855,142.82 -0.807,0.084 -76.69,-8.04 V -78.755 l 76.692,-45.633 76.692,45.633 V 61.813 Z"/></g><g id="g16"><g clip-path="url(#clipPath22)" id="g18"><g transform="translate(143.8521,124.9697)"  ><path   style="fill:none;stroke:#231f20;stroke-width:1;stroke-linecap:butt;stroke-linejoin:miter;stroke-miterlimit:10;stroke-dasharray:none;stroke-opacity:1" d="m 0,0 -67.02,39.508 v 0.01 l -0.008,-0.005 -0.008,0.005 v -0.01 L -133.32,0.046 V 52.777 L -66.659,59.766 0,52.777 Z m -0.054,-6.992 -18.236,-10.744 -8.419,-4.96 -40.149,23.884 -0.066,-6.951 34.317,-20.407 -0.304,-0.18 -0.739,-0.435 -4.876,-2.872 -28.332,16.854 -0.066,-6.951 22.362,-13.298 -5.276,-3.529 -0.128,-0.077 -16.892,9.951 -0.066,-6.95 11.084,-6.528 -11.291,-6.779 -66.044,39.259 66.139,39.755 V 32.043 Z M 0,-73.051 l -66.66,-39.663 -66.66,39.663 v 57.615 l 66.374,-39.505 0.111,-7.16 -45.534,27.1 -0.067,-6.951 45.715,-27.475 0.113,-7.349 -45.7,27.185 -0.066,-6.95 45.714,-27.475 46.152,27.616 v 6.982 l -0.057,-0.034 v 2.386 2.864 17.455 L 0,-14.466 Z m -65.855,142.82 -0.807,0.084 -76.69,-8.04 V -78.755 l 76.692,-45.633 76.692,45.633 V 61.813 Z"/></g></g></g></g></symbol>
		<symbol id="icon-insta" viewBox="0 0 29.024799 28.445333"><g transform="matrix(1.3333333,0,0,-1.3333333,0,28.445333)"  ><g  ><g clip-path="url(#clipPath18)"  ><g transform="translate(13.1875,13.667)"  ><path   style="fill-opacity:1;fill-rule:nonzero;stroke:none" d="M 0,0 C 0.211,-0.119 0.441,-0.217 0.606,-0.381 0.691,-0.6 0.85,-0.744 0.986,-0.91 1.044,-1.688 1.165,-2.402 1.138,-3.264 0.881,-3.362 0.699,-3.534 0.455,-3.645 c -0.78,0.006 -1.358,0.212 -1.897,0.457 -0.171,0.258 -0.356,0.504 -0.533,0.758 v 1.063 c 0.17,0.184 0.32,0.39 0.456,0.607 0.228,0.127 0.508,0.201 0.455,0.608 -0.039,0.061 -0.079,0.124 -0.076,0.228 0.159,-0.045 0.245,-0.159 0.379,-0.228 C -0.438,-0.171 -0.351,0.047 0,0 m 1.138,-3.796 c -0.234,0.057 -0.145,-0.208 -0.379,-0.152 0.069,0.159 0.118,0.338 0.228,0.455 0.134,-0.019 0.172,-0.13 0.151,-0.303 m -2.201,-2.581 c 0.034,0.109 0.066,-0.008 0.152,0 -0.019,-0.097 -0.151,-0.076 -0.152,0 m -0.759,2.885 c -0.04,0.038 0.054,0.096 0.076,0.076 0.039,-0.039 -0.055,-0.098 -0.076,-0.076 m -0.38,3.947 c -0.203,-0.258 0.041,-0.576 0.077,-0.836 -0.305,0.039 -0.573,0.888 -0.077,0.836 m -1.67,-2.125 c 0.015,0.086 0.075,0.042 0.075,0 -0.014,-0.087 -0.075,-0.043 -0.075,0 m -0.456,-2.051 c 0.041,0.117 0.079,0.006 0.076,-0.075 -0.04,-0.117 -0.079,-0.005 -0.076,0.075 m -0.075,0.305 c -0.114,0.063 -0.11,0.244 -0.153,0.379 0.256,0.078 0.118,-0.236 0.153,-0.379 m 3.415,4.327 C -1.211,1.143 -1.664,1.145 -1.975,1.29 -2.672,1.328 -3.197,1.197 -3.721,1.062 -4.024,0.911 -4.328,0.758 -4.631,0.608 -4.896,0.442 -5.075,0.19 -5.391,0.076 c -0.205,-0.224 -0.351,-0.51 -0.683,-0.607 -0.004,-0.223 -0.173,-0.282 -0.304,-0.379 -0.089,-0.115 -0.094,-0.312 -0.227,-0.381 -0.007,-0.12 0.036,-0.29 -0.076,-0.303 0.109,-1.511 0.291,-2.948 0.683,-4.177 0.287,-0.623 0.976,-0.845 1.442,-1.29 0.589,-0.296 1.328,-0.444 2.126,-0.531 0.278,0.052 0.553,0.106 0.911,0.076 1.209,0.209 2.098,0.737 2.81,1.442 0.1,0.281 0.252,0.508 0.455,0.683 -0.254,0.671 0.293,1.098 0.455,1.596 C 2.203,-2.451 2,-1.314 1.594,-0.38 1.338,0.199 0.674,0.372 0.228,0.759 0.169,0.776 0.077,0.762 0.076,0.835 -0.192,0.966 -0.656,1.068 -0.988,0.911 m 1.139,1.821 c -0.11,-0.046 0.007,-0.091 0,0 M -2.658,3.34 C -2.637,3.319 -2.543,3.377 -2.582,3.417 -2.603,3.438 -2.697,3.38 -2.658,3.34 m 0.533,0.38 c -0.316,0.073 -0.016,-0.228 0,0 M 0.151,2.732 C 0.685,2.781 0.9,3.148 1.366,3.264 1.65,3.562 2.15,3.645 2.354,4.023 1.794,4 1.588,3.624 1.138,3.492 0.854,3.196 0.387,3.079 0.151,2.732 M -2.125,3.72 c 0.346,0.134 0.613,0.347 0.834,0.607 C -1.639,4.193 -1.905,3.979 -2.125,3.72 m 0.834,0.607 c 0.064,-0.014 0.072,0.03 0.077,0.076 C -1.28,4.417 -1.286,4.374 -1.291,4.327 m 0.077,0.076 c 0.064,-0.014 0.07,0.031 0.075,0.076 -0.064,0.014 -0.072,-0.03 -0.075,-0.076 m 0.075,0.076 c 0.111,0.046 -0.007,0.092 0,0 m 0.683,0.608 c -0.11,-0.047 0.007,-0.092 0,0 M 0.228,4.251 C 0.954,4.409 1.408,4.842 1.974,5.162 1.537,5.144 1.382,4.842 0.986,4.783 0.771,4.567 0.387,4.523 0.228,4.251 m 1.746,0.911 c 0.11,0.047 -0.008,0.092 0,0 M 0.911,5.769 C 0.382,5.615 -0.107,5.421 -0.456,5.087 0.028,5.285 0.604,5.393 0.911,5.769 m 0,0 c 0.11,0.048 -0.009,0.092 0,0 M 6.756,2.05 C 6.117,2.17 5.523,2.334 4.858,2.429 4.931,2.762 5.657,2.439 5.846,2.656 6.23,2.879 6.141,3.577 6.149,4.175 6.182,4.522 6.264,4.818 6.226,5.238 5.824,6.189 4.442,5.659 3.34,5.693 3.115,4.976 2.87,3.894 3.036,3.037 3.205,2.547 4.061,2.744 4.555,2.581 4.415,2.249 3.866,2.523 3.567,2.505 3.271,2.588 2.86,2.557 2.581,2.656 0.296,2.579 -1.703,2.652 -3.948,2.505 -3.831,3.752 -3.885,4.97 -4.024,6.149 h 3.112 C -1.256,5.785 -1.824,5.643 -2.202,5.314 -2.643,5.07 -3.063,4.809 -3.341,4.403 c 0.249,-0.133 0.535,0.245 0.759,0.379 0.355,0.074 0.479,0.381 0.835,0.455 0.423,0.439 1.096,0.626 1.67,0.912 C 0.301,6.172 0.62,6.136 0.91,6.073 2.193,6.065 3.366,5.946 4.706,5.997 5.32,5.852 6.156,5.928 6.68,5.693 6.787,5.396 6.911,5.114 6.984,4.782 6.994,3.786 6.837,2.956 6.756,2.05 M 6.377,-9.11 c -0.109,-0.954 -0.158,-1.968 -0.379,-2.809 -2.89,-0.123 -6.019,-0.005 -8.883,-0.153 -0.199,-0.045 -0.273,0.031 -0.228,0.228 -0.253,0 -0.258,-0.247 -0.532,-0.228 0.202,0.336 0.438,0.898 0.152,1.291 -0.797,-0.013 -0.797,-0.822 -1.138,-1.291 -0.685,0.052 -1.137,-0.127 -1.823,-0.075 0.181,0.705 0.75,1.021 0.911,1.745 -0.395,0.549 -0.989,-0.138 -1.214,-0.455 -0.203,-0.481 -0.556,-0.81 -0.76,-1.29 h -0.986 c 0.238,0.468 0.489,0.925 0.759,1.366 0.171,0.511 0.625,0.741 0.682,1.367 -0.157,0.28 -0.419,0.029 -0.682,0 -0.123,-0.182 -0.273,-0.335 -0.38,-0.531 -0.232,-0.376 -0.501,-0.714 -0.684,-1.14 -0.18,-0.208 -0.335,-0.003 -0.53,-0.227 -0.389,-0.271 -0.58,-0.736 -0.988,-0.987 -0.174,0.06 0.039,0.357 0.153,0.38 0.046,0.181 -0.096,0.55 0.075,0.607 0.064,0.367 0.212,0.648 0.379,0.911 0.119,0.742 0.522,1.199 0.684,1.898 -0.559,-0.099 -0.674,-0.643 -0.987,-0.987 -0.213,-0.446 -0.542,-0.773 -0.683,-1.291 -0.174,0.131 -0.028,0.58 -0.076,0.836 0.122,0.586 0.298,1.119 0.38,1.746 0.132,0.22 0.172,0.535 0.228,0.834 0.168,0.209 0.046,0.61 -0.077,0.761 -0.226,-0.028 -0.374,-0.133 -0.455,-0.304 -0.192,0.032 -0.193,-0.506 -0.304,-0.304 -0.045,2.587 -0.451,4.813 -0.456,7.439 0.027,0.33 -0.182,0.424 -0.227,0.684 C -10.063,0.883 -8.571,0.82 -6.909,0.683 -6.998,0.544 -7.108,0.426 -7.213,0.304 -7.357,0.233 -7.439,0.131 -7.592,0 c -0.604,-1.653 -0.975,-3.984 -0.607,-6.15 0.228,-0.58 0.589,-1.03 0.986,-1.442 0.907,-0.485 1.635,-1.149 2.506,-1.671 1.701,-0.361 3.84,-0.369 5.541,0 0.236,0.12 0.484,0.226 0.685,0.38 1.364,1.242 2.752,2.459 2.96,4.86 v 1.367 c -0.197,1.597 -0.688,2.905 -1.747,3.643 0.331,0.22 1.099,-0.043 1.67,-0.076 0.223,-0.013 0.448,-0.014 0.684,0 0.408,0.024 0.928,0.055 1.443,0 C 6.673,0.725 6.643,0.367 6.757,0.151 6.695,-1.532 6.564,-3.148 6.604,-4.936 6.707,-5.39 6.731,-5.922 6.833,-6.377 6.743,-7.352 6.598,-8.269 6.377,-9.11 M -11.844,1.974 v 1.593 c 0.196,0.185 0.396,0.365 0.608,0.533 0.295,-0.49 0.178,-1.392 0.455,-1.898 -0.276,-0.156 -0.751,-0.11 -1.063,-0.228 m -0.076,3.264 c 0.226,0.205 0.451,0.41 0.684,0.608 -0.022,0.122 0.071,0.131 0.076,0.227 h 0.228 c 0.102,-0.381 -0.26,-0.296 -0.304,-0.531 0.021,-0.122 -0.073,-0.131 -0.076,-0.227 0.02,-0.336 0.122,-0.588 0.076,-0.988 -0.27,-0.008 -0.276,-0.28 -0.608,-0.227 0.024,0.428 -0.134,0.674 -0.076,1.138 m 0.456,0.759 c -0.034,-0.219 -0.326,-0.179 -0.379,-0.379 -0.215,0.17 0.083,0.468 0.379,0.379 m 0.986,0.076 c 0.029,-0.259 -0.438,-0.32 -0.378,0 z m 0.684,-3.72 c 0.148,0.03 0.11,-0.345 -0.076,-0.228 0.04,0.062 0.079,0.124 0.076,0.228 m 0.228,3.72 c 0.033,-0.158 -0.052,-0.2 -0.076,-0.304 -0.175,-0.023 -0.084,0.219 -0.228,0.229 0.024,0.103 0.19,0.063 0.304,0.075 m 0,-1.138 c -0.263,-0.054 -0.273,0.266 -0.153,0.379 0.263,0.054 0.272,-0.266 0.153,-0.379 m -0.228,-2.05 c 0.077,0.311 0.034,0.303 0.075,0.682 0.229,-0.012 0.261,-0.769 -0.075,-0.682 m 0.152,0.987 c -0.204,-0.021 -0.216,0.534 -0.077,0.607 0.328,-0.006 0.249,-0.5 0.077,-0.607 m 0.532,0 c 0.006,0.108 0.012,0.214 -0.077,0.228 -0.072,0.733 0.13,1.415 0,1.973 0.25,0.155 0.769,0.042 1.139,0.077 V 5.011 C -8.136,4.947 -8.251,4.91 -8.427,4.935 -8.481,4.654 -8.103,4.803 -8.048,4.631 -8.04,3.778 -8.104,2.854 -7.896,2.202 -8.461,2.261 -8.802,2.095 -9.338,2.126 -9.241,2.738 -9.356,3.561 -8.807,3.72 -8.818,3.861 -9.064,3.767 -9.11,3.872 m 2.353,-1.216 c 0.175,0.025 0.084,-0.218 0.228,-0.227 -0.009,-0.193 -0.284,-0.179 -0.38,-0.076 0.039,0.112 0.113,0.192 0.152,0.303 m 0.152,0.229 C -6.663,2.746 -6.687,2.93 -6.681,3.037 -6.623,3.175 -6.6,2.991 -6.605,2.885 m 0,1.366 c -0.132,0.07 -0.168,0.237 -0.152,0.456 0.132,-0.07 0.168,-0.238 0.152,-0.456 m -0.152,1.822 c 0.089,0.013 0.134,-0.016 0.152,-0.076 0.179,-0.253 0.009,-0.683 -0.076,-0.911 -0.174,0.179 -0.027,0.682 -0.076,0.987 m 0.683,-1.594 c -0.117,0.263 -0.067,0.692 -0.075,1.063 -0.007,0.284 0.277,0.278 0.303,0.531 -0.003,0.074 -0.092,0.059 -0.152,0.076 0.127,0.146 0.701,0.097 0.835,0 0.132,-0.537 -0.355,-0.455 -0.531,-0.683 0.01,-0.168 0.322,-0.032 0.456,-0.076 0.029,-0.854 -0.059,-1.496 0,-2.202 H -5.694 C -5.701,2.954 -5.466,2.962 -5.238,2.96 -5.297,2.674 -5.146,2.597 -5.163,2.353 -5.389,2.2 -5.879,2.31 -6.225,2.277 c -0.103,0.594 0.236,1.375 0.151,2.202 m 1.671,-2.733 c 0.757,0.153 1.48,0.341 2.428,0.304 0.71,-0.075 1.287,-0.282 1.898,-0.455 C 0.039,1.411 -0.32,1.048 0.076,0.911 V 0.835 C 0.135,0.818 0.226,0.833 0.228,0.759 0.673,0.724 1.021,0.592 1.291,0.38 1.741,0.325 1.827,-0.096 2.429,0 2.338,-0.213 2.345,-0.524 2.354,-0.835 2.678,-2.018 2.828,-3.645 2.656,-5.087 2.492,-5.25 2.441,-5.529 2.354,-5.77 2.043,-6.092 1.872,-6.555 1.518,-6.832 1.423,-7.068 1.268,-7.24 1.063,-7.365 0.947,-7.578 0.857,-7.817 0.606,-7.896 c -0.297,-0.163 -0.577,-0.01 -0.834,0.077 -0.446,-0.162 -0.904,-0.312 -1.214,-0.608 -0.817,0.096 -1.649,0.175 -2.43,0.304 -0.242,0.139 -0.487,0.273 -0.835,0.305 -0.227,0.204 -0.496,0.364 -0.836,0.455 -0.101,0.127 -0.337,0.118 -0.455,0.228 -0.198,0.03 -0.229,0.227 -0.456,0.229 -0.118,0.412 -0.442,0.618 -0.531,1.061 -0.226,0.331 -0.308,0.805 -0.455,1.215 -0.043,1.434 0.091,2.692 0.379,3.796 0.346,0.591 0.779,1.094 1.138,1.67 0.249,-0.021 0.365,0.09 0.38,0.304 0.306,-0.053 0.434,0.072 0.684,0.075 0.255,0.074 0.266,0.391 0.456,0.531 M 8.578,-4.479 C 8.565,-2.084 8.234,0.31 8.275,2.656 8.252,3.444 8.189,4.191 8.123,4.935 8.018,5.234 8.012,5.634 7.971,5.997 7.711,6.167 7.749,6.637 7.515,6.833 7.092,7.066 6.313,6.946 5.771,7.06 5.113,7.086 4.517,7.175 3.871,7.212 1.936,7.313 -0.102,7.288 -2.125,7.288 c -2.001,0 -3.954,0.145 -5.695,0.379 h -2.202 c -0.097,-0.004 -0.105,-0.098 -0.227,-0.076 -0.599,-0.034 -1.077,-0.188 -1.595,-0.303 -0.21,-0.119 -0.421,-0.236 -0.683,-0.305 -0.136,-0.192 -0.513,-0.144 -0.607,-0.379 -0.186,-0.211 0.185,-0.451 0,-0.607 V 5.086 c 0.174,-0.13 0.028,-0.58 0.075,-0.835 V 3.264 c -0.016,-1.281 0.134,-2.398 0.077,-3.72 0.467,-2.762 0.374,-6.537 0.076,-9.413 0.155,-0.579 0.363,-1.106 0.455,-1.746 0.256,-0.479 0.335,-1.133 0.683,-1.52 0.502,-0.206 1.233,-0.185 1.898,-0.228 0.383,-0.098 0.667,-0.293 1.14,-0.304 2.843,0.21 5.496,0.154 8.426,0.229 2.704,-0.241 5.802,-0.189 8.276,0.227 0.195,0.134 0.128,0.529 0.227,0.76 -0.055,0.385 0.207,0.449 0.228,0.759 0.133,2.392 0.165,4.787 0.151,7.213"/></g></g></g></g></symbol>
		<symbol id="icon-mail" viewBox="0 0 42.666668 28"><g transform="matrix(1.3333333,0,0,-1.3333333,0,28)"  ><g  ><g clip-path="url(#clipPath18)"  ><g transform="translate(17.1992,7.3984)"  ><path   style="fill:#333333;fill-opacity:1;fill-rule:nonzero;stroke:none" d="m 0,0 c -0.35,-0.263 -0.763,-0.4 -1.199,-0.4 -0.436,0 -0.851,0.138 -1.2,0.4 l -4.135,3.102 -0.833,0.625 -7.832,5.874 v 10e-4 c 0,1.103 0.897,2 2,2 h 24 c 1.101,0 2,-0.897 2,-2 z m 12.801,-2.148 -7,5.25 7,5.25 z m 0,-1.25 c 0,-1.104 -0.899,-2 -2,-2 h -24 c -1.103,0 -2,0.896 -2,2 l 7.832,5.875 4.368,-3.278 c 0.533,-0.397 1.166,-0.599 1.8,-0.599 0.633,0 1.265,0.201 1.799,0.599 l 4.369,3.278 z m -28,11.75 6.999,-5.25 -6.999,-5.25 z m 26,5.25 h -24 c -2.209,0 -4,-1.792 -4,-4 v -13 c 0,-2.209 1.791,-4 4,-4 h 24 c 2.209,0 4,1.791 4,4 v 13 c 0,2.208 -1.791,4 -4,4"/></g></g></g></g></symbol><symbol id="icon-phone" viewBox="0 0 33.104801 32.443333"><g transform="matrix(1.3333333,0,0,-1.3333333,0,32.443333)"  ><g  ><g clip-path="url(#clipPath18)"  ><g transform="translate(17.3208)"  ><path   style="fill:#000000;fill-opacity:1;fill-rule:nonzero;stroke:none" d="m 0,0 h -1.115 c -4.904,0.58 -8.497,2.857 -11.111,5.772 -2.622,2.923 -4.693,6.686 -5.095,11.744 v 1.358 c 0.091,0.92 0.544,1.549 1.067,2.085 0.65,0.666 1.63,1.522 2.522,1.554 0.659,0.022 1.78,-0.451 2.232,-1.066 0.388,-0.53 0.595,-1.591 0.775,-2.379 0.185,-0.797 0.6,-1.949 0.485,-2.716 -0.176,-1.196 -1.764,-1.704 -2.231,-2.572 1.551,-3.721 4.089,-6.456 7.472,-8.345 0.847,0.464 1.595,1.864 2.767,1.891 0.427,0.012 0.971,-0.209 1.406,-0.34 C -0.35,6.844 0.064,6.66 0.484,6.502 1.189,6.236 2.441,5.881 2.862,5.289 3.295,4.679 3.543,3.681 3.443,3.058 3.25,1.824 1.217,0.455 0,0"/></g><g transform="translate(12.5288,22.8047)"  ><path   style="fill:#000000;fill-opacity:1;fill-rule:nonzero;stroke:none" d="M 0,0 C 5.949,0 10.771,-4.822 10.771,-10.771 H 12.3 C 12.3,-3.979 6.794,1.528 0,1.528 Z"/></g><g transform="translate(12.5288,15.0054)"  ><path   style="fill:#000000;fill-opacity:1;fill-rule:nonzero;stroke:none" d="m 0,0 v -1.552 c 0.785,0 1.421,-0.636 1.421,-1.42 H 2.974 C 2.974,-1.33 1.644,0 0,0"/></g><g transform="translate(12.5288,18.0864)"  ><path   style="fill:#000000;fill-opacity:1;fill-rule:nonzero;stroke:none" d="M 0,0 C 3.345,0 6.056,-2.71 6.056,-6.054 H 7.644 C 7.644,-1.834 4.222,1.587 0,1.587 Z"/></g></g></g></g></symbol>
		<symbol id="icon-search" viewBox="0 0 23.466133 23.4648"><g transform="matrix(1.3333333,0,0,-1.3333333,0,23.4648)"  ><g  ><g clip-path="url(#clipPath18)"  ><g transform="translate(2.1982,9.9004)"  ><path   style=" fill-opacity:1;fill-rule:nonzero;stroke:none" d="M 0,0 C 0,3.038 2.462,5.5 5.5,5.5 8.538,5.5 11,3.038 11,0 11,-3.038 8.538,-5.5 5.5,-5.5 2.462,-5.5 0,-3.039 0,0 m 15.071,-8.031 -3.415,3.415 c 0.965,1.289 1.545,2.881 1.545,4.616 0,4.253 -3.447,7.698 -7.7,7.698 -4.253,0 -7.699,-3.445 -7.699,-7.698 0,-4.253 3.445,-7.7 7.698,-7.7 1.734,0 3.326,0.58 4.613,1.546 L 13.53,-9.57 c 0.203,-0.202 0.418,-0.33 0.772,-0.33 0.606,0 1.099,0.492 1.099,1.099 0,0.24 -0.061,0.499 -0.33,0.77"/></g></g></g></g></symbol>
		<symbol id="icon-twit" viewBox="0 0 31.325466 26.890667"><g transform="matrix(1.3333333,0,0,-1.3333333,0,26.890667)"  ><g  ><g clip-path="url(#clipPath18)"  ><g transform="translate(14.8574,14.6025)"  ><path   style="fill-opacity:1;fill-rule:nonzero;stroke:none" d="m 0,0 c 0.163,-0.135 0.284,-0.31 0.519,-0.371 0.1,-0.221 0.314,-0.327 0.593,-0.37 0.047,0.15 0.346,0.049 0.37,0.222 0.174,0.023 0.166,0.229 0.296,0.297 C 1.761,0.328 1.649,0.784 1.408,1.111 0.65,1.534 -0.268,1.072 0,0 M 5.483,3.038 C 5.354,2.698 5.253,2.331 4.891,2.223 4.874,2.328 4.769,2.348 4.743,2.445 4.731,2.654 4.952,2.63 5.039,2.741 c 0.163,0.085 0.245,0.248 0.444,0.297 -0.006,0.089 0.109,0.046 0,0 M 5.188,-2.594 C 5.034,-3.453 4.572,-4.004 4.149,-4.595 4.208,-4.974 4.046,-5.133 4.076,-5.483 3.918,-5.796 3.789,-6.136 3.705,-6.521 3.502,-6.787 3.373,-7.127 3.187,-7.41 2.82,-7.958 2.409,-8.461 2.001,-8.967 1.623,-9.526 1.089,-9.932 0.667,-10.448 c -0.42,-0.493 -0.942,-0.885 -1.407,-1.334 -0.474,-0.17 -0.89,-0.397 -1.26,-0.667 -0.232,-0.09 -0.463,-0.18 -0.667,-0.296 -0.177,-0.146 -0.499,-0.145 -0.668,-0.297 -1.086,-0.147 -2.3,-0.17 -3.555,-0.148 -1.031,0.105 -2.115,0.159 -3.039,0.371 -0.923,0.189 -1.511,0.712 -2.297,1.037 0.153,0.242 0.634,0.154 0.963,0.221 0.031,0.166 0.394,0.003 0.444,0.15 0.257,-0.06 0.285,0.109 0.52,0.073 0.563,0.201 1.23,0.302 1.704,0.593 0.282,0.138 0.406,0.433 0.667,0.593 0.033,0.189 0.103,0.34 0.221,0.444 0.048,0.275 0.202,0.441 0.149,0.815 0.111,0.21 0.299,0.343 0.296,0.667 -0.074,0.148 -0.128,0.317 -0.296,0.372 -0.026,0.196 -0.378,0.067 -0.444,0.221 -0.255,-0.032 -0.416,0.029 -0.593,0.075 -0.154,0.043 -0.487,-0.091 -0.519,0.074 -0.842,0.023 -1.3,0.429 -1.853,0.74 0.431,0.262 1.032,0.352 1.334,0.742 0.516,0.076 1.057,0.129 1.112,0.666 0,0.717 -0.771,0.661 -1.333,0.815 -0.774,0.661 -1.195,1.672 -1.779,2.52 0.238,0.157 0.564,0.226 0.74,0.444 0.455,-0.057 0.54,0.251 0.667,0.52 0.019,0.488 -0.332,0.605 -0.592,0.815 -0.259,0.21 -0.475,0.462 -0.667,0.741 -0.003,0.818 -0.022,1.651 0.074,2.371 0.063,0.014 0.07,-0.029 0.074,-0.074 0.226,-0.441 0.559,-0.775 0.815,-1.186 0.532,-0.357 0.925,-0.853 1.556,-1.111 0.452,-0.413 1.109,-0.622 1.557,-1.038 0.6,-0.263 1.158,-0.57 1.704,-0.889 0.669,-0.195 1.056,-0.673 2.001,-0.593 0.198,0.098 0.393,0.199 0.593,0.297 0.257,0.456 -0.059,1.079 0.147,1.63 0.255,0.659 0.797,1.031 1.26,1.482 0.29,0.155 0.555,0.335 0.815,0.519 0.347,0.097 0.675,0.216 0.964,0.37 0.376,0.019 0.713,0.078 1.037,0.148 h 1.26 C 2.616,2.393 2.847,2.326 3.112,2.297 3.321,2.16 3.492,1.984 3.778,1.927 4.567,1.233 5.049,0.231 5.188,-1.112 c -0.124,-0.485 0.051,-0.874 0,-1.482 M 8.596,1.481 C 8.369,1.848 7.687,1.759 7.188,1.853 H 6.076 C 6.218,2.205 6.419,2.499 6.596,2.816 6.651,3.254 6.85,3.55 6.818,4.076 6.947,4.242 6.994,4.492 7.114,4.668 7.218,4.813 7.356,5.146 7.188,5.335 7.138,5.556 6.894,5.583 6.596,5.557 6.508,5.521 6.427,5.479 6.374,5.409 5.926,4.976 5.596,4.396 5.113,4.001 5.104,3.993 5.052,4.002 5.039,4.001 4.952,3.997 5.006,3.955 4.964,3.927 4.817,3.83 4.707,3.775 4.595,3.705 4.311,3.528 4.048,3.26 3.704,3.186 3.175,3.397 2.548,3.512 1.853,3.556 0.695,3.454 -0.45,3.341 -1.186,2.815 -2.097,2.466 -2.662,1.773 -3.335,1.185 -3.384,0.865 -3.677,0.787 -3.705,0.444 -3.71,0.399 -3.717,0.356 -3.778,0.37 -3.735,0.129 -3.829,0.025 -3.853,-0.148 c -10e-4,-0.133 0.2,-0.432 0,-0.52 -0.822,0.12 -1.485,0.63 -2.149,0.964 -0.718,0.36 -1.468,0.603 -2.074,1.111 -0.716,0.322 -1.26,0.816 -1.778,1.334 -0.209,0.311 -0.542,0.495 -0.668,0.89 -0.379,0.164 -0.175,0.912 -0.741,0.889 -0.315,0.043 -0.344,-0.2 -0.444,-0.371 -0.07,-0.226 -0.361,-0.232 -0.371,-0.518 -0.004,-0.046 -0.011,-0.089 -0.074,-0.075 -0.17,-1.089 -0.528,-1.992 -0.519,-3.26 0.129,-0.415 0.35,-0.738 0.593,-1.038 -0.418,-0.05 -0.716,-0.222 -0.89,-0.519 -0.059,-1.073 0.378,-1.647 0.742,-2.297 0.134,-0.383 0.351,-0.684 0.593,-0.963 0.017,-0.229 0.206,-0.288 0.296,-0.445 0.018,-0.105 0.122,-0.125 0.149,-0.222 -0.041,-0.106 0.288,-0.18 0.073,-0.221 -0.413,-0.131 -1.016,-0.07 -1.26,-0.371 -0.109,-0.28 -0.109,-0.833 0,-1.112 0.034,-0.237 0.283,-0.261 0.297,-0.518 0.499,-0.417 1.081,-0.747 1.631,-1.112 0.574,-0.166 1.211,-0.271 1.852,-0.371 -0.102,-0.342 -0.338,-0.55 -0.593,-0.741 -0.78,-0.381 -1.849,-0.473 -2.742,-0.74 -0.555,-0.038 -0.956,-0.23 -1.556,-0.223 -0.332,-0.127 -0.853,-0.075 -1.112,-0.222 -0.121,-0.069 -0.101,-0.096 -0.222,-0.221 -0.134,-0.412 0.111,-0.74 0.444,-0.89 -0.005,-0.253 0.219,-0.276 0.371,-0.371 0.089,-0.182 0.254,-0.29 0.445,-0.37 0.544,-0.468 1.268,-0.759 1.927,-1.112 0.829,-0.183 1.648,-0.376 2.519,-0.519 0.896,-0.116 1.901,-0.124 2.816,-0.221 h 0.963 c 0.511,-0.132 1.231,-0.054 1.853,-0.075 0.094,0.102 0.322,0.074 0.518,0.075 0.523,0.268 1.196,0.384 1.631,0.74 0.574,0.241 0.989,0.641 1.557,0.889 0.866,0.765 1.936,1.325 2.518,2.373 0.205,0.189 0.351,0.438 0.446,0.74 0.264,0.156 0.384,0.454 0.592,0.667 0.405,0.41 0.706,0.924 1.037,1.408 0.32,0.496 0.577,1.054 0.89,1.556 -0.01,0.405 0.306,0.484 0.296,0.889 0.193,0.226 0.177,0.662 0.371,0.889 -0.033,0.255 0.029,0.415 0.074,0.594 0.047,1.281 -0.047,2.422 -0.297,3.407 0.588,0.155 1.181,0.302 1.631,0.593 0.526,0.185 0.998,0.582 0.814,1.259"/></g></g></g></g></symbol>
		<symbol id="logo-footer" viewBox="0 0 135.48666 45.4076"><g transform="matrix(1.3333333,0,0,-1.3333333,0,45.4076)"  ><g  ><g clip-path="url(#clipPath18)"  ><g transform="translate(19.1348,12.5605)"  ><path   style="fill-opacity:1;fill-rule:nonzero;stroke:none" d="m 0,0 c -0.083,2.683 -0.51,5.347 -0.475,8.035 0.028,2.174 0.389,4.41 -0.36,6.494 0.047,0.237 0.096,0.473 0.14,0.711 0.194,1.045 -3.27,0.492 -3.813,-0.464 -0.344,-0.28 -0.519,-0.615 -0.375,-0.956 0.037,-0.087 0.07,-0.174 0.102,-0.261 C -5.437,10.355 -6.351,7.253 -7.402,4.147 -7.805,2.959 -8.291,1.798 -8.7,0.614 c -0.582,1.104 -1.17,2.194 -1.643,3.377 -1.373,3.433 -2.612,6.902 -4.287,10.206 0.19,1.529 -3.203,1.368 -3.872,-0.031 -0.81,-1.694 -0.705,-3.404 -0.439,-5.215 0.3,-2.042 0.353,-4.05 0.378,-6.111 0.047,-3.976 0.358,-7.944 0.417,-11.919 -0.354,-0.395 -0.461,-0.881 -0.091,-1.375 0.162,-0.216 0.362,-0.382 0.571,-0.549 0.904,-0.724 3.5,-0.107 3.496,1.272 -0.015,4.122 -0.312,8.237 -0.421,12.357 -0.011,0.404 -0.017,0.808 -0.024,1.211 0.057,-0.145 0.114,-0.29 0.172,-0.434 0.64,-1.604 1.309,-3.163 2.185,-4.654 0.867,-1.478 1.303,-3.064 1.803,-4.677 -0.19,-0.217 -0.303,-0.462 -0.233,-0.708 -0.039,-0.179 0.07,-0.292 0.251,-0.36 0.639,-0.548 1.841,-0.275 2.509,0.007 0.287,0.121 0.561,0.26 0.826,0.424 0.346,0.211 0.884,0.678 0.729,1.158 -0.029,0.093 -0.058,0.186 -0.086,0.279 0.469,1.27 0.709,2.589 0.965,3.93 0.272,1.428 0.782,2.78 1.295,4.133 0.052,-0.619 0.106,-1.238 0.156,-1.855 0.204,-2.554 0.033,-5.072 0.007,-7.627 -0.008,-0.847 0.054,-1.633 0.219,-2.461 0.068,-0.343 0.367,-1.807 0.281,-1.887 -0.611,-0.564 -0.433,-1.256 0.385,-1.436 0.915,-0.201 2.081,0.105 2.77,0.742 1.198,1.107 0.631,2.845 0.36,4.241 C -0.474,-5.006 0.073,-2.384 0,0"/></g><g transform="translate(27.499,11.8853)"  ><path   style="fill-opacity:1;fill-rule:nonzero;stroke:none" d="m 0,0 c -0.074,1.988 -0.765,3.862 -0.774,5.872 -0.011,2.305 0.181,4.593 -0.155,6.886 -0.106,0.725 -4.056,-0.1 -3.917,-1.05 0.308,-2.11 0.197,-4.229 0.159,-6.354 -0.037,-2.044 0.468,-3.897 0.73,-5.904 0.269,-2.054 -0.084,-4.157 0.15,-6.213 0.109,-0.962 0.75,-2.743 0.089,-3.58 -0.42,-0.532 1.469,-0.342 1.553,-0.326 0.769,0.141 1.793,0.391 2.304,1.038 0.653,0.828 0.196,2.425 0.053,3.357 C -0.125,-4.214 0.077,-2.079 0,0"/></g><g transform="translate(43.8281,15.2046)"  ><path   style="fill-opacity:1;fill-rule:nonzero;stroke:none" d="m 0,0 c -2.062,2.784 -5.889,0.78 -8.561,1.54 -1.377,0.392 -1.395,2.271 -1.392,3.396 0.004,1.426 -0.113,2.732 -0.273,4.146 -0.118,1.052 -0.024,2.121 0.746,2.904 0.142,0.144 0.859,0.336 0.81,0.339 0.354,0.06 0.676,0.075 1.067,0.092 1.549,0.067 4.613,-0.231 4.02,-2.483 -0.267,-1.01 3.596,-0.431 3.877,0.637 1.213,4.597 -7.284,3.714 -9.686,3.077 -2.211,-0.585 -4.649,-1.844 -4.776,-4.397 -0.061,-1.219 0.273,-2.379 0.325,-3.587 0.061,-1.39 -0.198,-2.776 0.289,-4.118 1.082,-2.982 5.52,-1.576 7.778,-1.745 3.845,-0.287 2.696,-5.468 2.747,-7.883 0.028,-1.288 1.181,-3.429 0.211,-4.507 -0.595,-0.662 -1.982,-0.7 -2.792,-0.768 -0.813,-0.068 -2.201,-0.312 -2.742,0.461 -0.993,1.418 0.091,3.799 -0.121,5.425 -0.12,0.924 -4.066,0.095 -3.917,-1.05 0.343,-2.627 -1.399,-6.145 2.402,-6.596 2.442,-0.289 5.192,0.161 7.5,0.928 1.196,0.397 2.307,0.942 3.243,1.793 1.035,0.941 0.695,2.348 0.417,3.547 C 0.496,-5.931 1.904,-2.57 0,0"/></g><g transform="translate(61.1553,15.3936)"  ><path   style="fill-opacity:1;fill-rule:nonzero;stroke:none" d="m 0,0 c -0.122,3.777 -0.69,7.513 -0.706,11.297 -0.008,1.971 -3.963,1.305 -3.957,-0.343 0.016,-3.608 0.497,-7.166 0.683,-10.764 0.003,-0.073 0.008,-0.147 0.012,-0.22 -1.949,0.017 -3.899,-0.178 -5.852,-0.246 0.201,4.633 -0.612,9.227 -0.435,13.857 0.022,0.582 -3.873,0.09 -3.917,-1.049 -0.171,-4.475 0.587,-8.915 0.453,-13.392 -0.064,-2.136 -0.245,-4.264 -0.26,-6.402 -0.007,-1.094 0.172,-2.182 0.329,-3.262 0.146,-0.999 0.484,-2.331 0.182,-3.319 -0.237,-0.772 3.56,-0.29 3.862,0.695 0.544,1.778 -0.222,4.038 -0.405,5.838 -0.175,1.725 -0.039,3.499 0.083,5.248 2.03,0.13 4.059,0.298 6.08,0.012 0.09,-1.378 0.196,-2.754 0.322,-4.134 0.106,-1.157 0.179,-2.314 0.196,-3.475 0.016,-1.019 0.142,-2.496 -0.22,-3.461 -0.773,-2.057 3.15,-1.889 3.722,-0.364 0.703,1.87 0.503,4.198 0.383,6.163 C 0.406,-4.877 0.078,-2.447 0,0"/></g><g transform="translate(78.0869,10.9194)" id="g36"><path id="path38" style="fill-opacity:1;fill-rule:nonzero;stroke:none" d="m 0,0 c -0.939,2.758 -2.373,5.177 -3.616,7.797 1.001,1.949 2.017,3.899 2.931,5.889 0.831,1.807 1.447,3.818 3.08,5.092 0.574,0.447 0.55,0.895 -0.255,0.951 C 1.265,19.79 0.076,19.537 -0.629,18.987 -2.115,17.829 -3.056,16.424 -3.83,14.719 -4.762,12.668 -5.727,10.656 -6.744,8.644 -6.818,8.497 -6.893,8.349 -6.967,8.201 -7.458,7.886 -7.752,7.439 -7.606,6.935 c -0.791,-1.564 -1.6,-3.117 -2.499,-4.611 -0.299,5.534 -0.955,11.061 -1.15,16.6 -0.045,1.27 -3.972,0.48 -3.917,-1.049 0.242,-6.868 1.218,-13.719 1.286,-20.587 -0.016,-0.017 -0.031,-0.034 -0.048,-0.051 -0.301,-0.308 -0.19,-0.493 0.052,-0.601 0.002,-1.751 -0.059,-3.502 -0.209,-5.255 -0.472,-0.745 0.463,-1.138 1.084,-1.138 h 0.096 c 0.74,0 2.626,0.349 2.719,1.364 0.191,2.1 0.251,4.196 0.232,6.291 1.59,1.715 2.889,3.63 4.055,5.635 0.759,-1.48 1.482,-2.972 1.988,-4.582 0.861,-2.741 2.3,-5.261 3.131,-8.014 0.545,-1.806 4.457,-0.738 3.917,1.049 C 2.301,-5.262 0.926,-2.718 0,0"/></g><g transform="translate(86.9717,15.7051)" id="g40"><path id="path42" style="fill-opacity:1;fill-rule:nonzero;stroke:none" d="m 0,0 c -0.103,1.245 -0.217,2.49 -0.303,3.743 -0.159,2.331 0.117,5.583 2.29,6.999 0.58,0.379 1.675,0.315 2.354,0.438 0.97,0.175 1.956,0.388 2.829,-0.19 C 8.38,10.188 8.083,7.333 8.082,6.121 8.079,4.115 8.289,2.119 8.391,0.117 7.839,0.062 7.28,0.028 6.708,0.041 4.422,0.095 2.165,0.455 0,0 m 14.619,-0.151 c -0.21,0.832 -1.372,0.849 -2.272,0.77 -0.012,0.336 -0.019,0.672 -0.036,1.006 -0.125,2.662 -0.165,5.38 -0.392,8.032 -0.209,2.458 -1.585,3.338 -3.971,3.247 C 5.532,12.812 2.718,12.376 0.465,11.5 -2.142,10.487 -3.593,8.566 -4.093,5.819 c -0.55,-3.013 0.239,-6.218 0.373,-9.246 0.154,-3.503 0.066,-7.013 0.062,-10.518 0,-0.574 3.916,-0.032 3.917,1.049 0.003,2.776 0.043,5.551 0,8.326 -0.012,0.819 -0.051,1.632 -0.102,2.444 1.369,0.593 3.687,-0.012 5.051,-0.141 1.107,-0.105 2.168,0.166 3.244,0.291 0.02,-2.312 0.107,-4.634 0.202,-6.944 0.049,-1.184 0.476,-3.53 -0.354,-4.511 -0.436,-0.515 1.481,-0.342 1.555,-0.33 0.793,0.147 1.761,0.402 2.303,1.041 0.949,1.12 0.456,3.79 0.401,5.127 -0.078,1.91 -0.101,3.823 -0.141,5.737 1.153,0.149 2.415,0.856 2.201,1.705"/></g><g transform="translate(24.1079,27.3555)" id="g44"><path id="path46" style="fill-opacity:1;fill-rule:nonzero;stroke:none" d="M 0,0 C 0.521,0.05 1.045,0.226 1.477,0.524 1.563,0.597 1.648,0.668 1.733,0.741 2.253,1.076 2.705,1.568 2.461,2.102 1.958,3.207 2.039,4.333 2.046,5.516 2.052,6.474 1.083,6.762 0.265,6.69 -0.458,6.626 -1.903,6.109 -1.91,5.17 -1.916,4.177 -1.981,3.154 -1.801,2.178 -1.848,2.065 -1.875,1.939 -1.905,1.822 -1.96,1.61 -1.889,1.402 -1.763,1.232 -1.762,1.188 -1.76,1.143 -1.76,1.098 -1.755,0.986 -1.75,0.875 -1.746,0.763 -1.672,0.531 -1.53,0.354 -1.317,0.233 -0.93,0 -0.439,-0.042 0,0"/></g></g></g></g></symbol>
</svg>